# xmcd
#
# Track frame offsets:
#	150
#	18599
#	33904
#	53417
#	87155
#	108778
#	124400
#	140278
#	175047
#	189578
#	223970
#	239335
#	258397
#	280149
#	296961
#	315221
#	329159
#
# Disc length: 4657 seconds
#
# Revision: 1
# Processed by: cddbd v1.5.2PL0 Copyright (c) Steve Scherf et al.
# Submitted via: audiograbber 1.83.01
#
DISCID=f9122f11
DTITLE=Various Artist - Blue Rose Nuggets 68
DYEAR=2014
DGENRE=Country Rock
TTITLE0=Los Lonely Boys - There's Always Tomorrow
TTITLE1=Danny and Dusty - Cast Iron Soul
TTITLE2=Jess Klein - Surrender
TTITLE3=Poco - Hard Country
TTITLE4=Will Kimbrough - When Your Loving Comes Around
TTITLE5=Gurf Morlix - Diamonds To Dust
TTITLE6=Micky and The Motorcars - Hearts From Above
TTITLE7=Dan Baird and Homemade Sin - Thousand Little Pieces
TTITLE8=The Howlin' Brothers - Monroe
TTITLE9=Susan Cowsill - Crescent City Sneaux
TTITLE10=NQ Arbuckle - Back To Earth
TTITLE11=The Resentments - All Night Long
TTITLE12=Michael Hall and The Woodpeckers - Lucky Too
TTITLE13=Chris Burroughs - His Latest Flame
TTITLE14=South Austin Moonlighters - 29 Miles
TTITLE15=Wild Pones - Make You Mine
TTITLE16=Reto Burrell - I Want You To Want Me (Live)
EXTD=
EXTT0=
EXTT1=
EXTT2=
EXTT3=
EXTT4=
EXTT5=
EXTT6=
EXTT7=
EXTT8=
EXTT9=
EXTT10=
EXTT11=
EXTT12=
EXTT13=
EXTT14=
EXTT15=
EXTT16=
PLAYORDER=
